<?xml version="1.0" encoding="UTF-8"?>
<svg width="17px" height="17px" viewBox="0 0 17 17" version="1.1" xmlns="http://www.w3.org/2000/svg" xmlns:xlink="http://www.w3.org/1999/xlink">
    <title>github</title>
    <g id="页面-1" stroke="none" stroke-width="1" fill="none" fill-rule="evenodd">
        <g id="画板" transform="translate(-372.000000, -438.000000)" fill="#777E90" fill-rule="nonzero">
            <g id="github" transform="translate(372.000000, 438.000000)">
                <path d="M16.9900872,8.23481323 C16.8042581,3.78479533 13.2469586,0.170841404 8.86670175,0.00902257145 C6.53056476,-0.0988566503 4.30061582,0.764177124 2.6016071,2.40933526 C0.929145393,4.05449339 0,6.26601743 0,8.63936031 C0,12.5230123 2.57506009,15.9481776 6.23854764,16.9460604 C6.34473568,16.9730302 6.45092373,17 6.55711177,17 C6.82258188,17 7.088052,16.9190906 7.30042809,16.7303019 C7.59244521,16.4875737 7.77827429,16.1369662 7.77827429,15.7593889 L7.77827429,14.8693854 C7.77827429,14.6266571 7.8048213,13.5478649 7.8048213,13.3321065 C7.83136831,13.1972574 7.85791532,13.0893782 7.93755635,13.0084688 C8.12338543,12.7657405 8.14993244,12.4421029 8.01719739,12.1724048 C7.88446233,11.9296766 7.67208624,11.7678577 7.40661613,11.7408879 C7.22078705,11.7139181 7.03495797,11.6869483 6.90222292,11.6330087 C6.68984683,11.5790691 6.47747074,11.4711899 6.26509465,11.3633107 C6.10581258,11.2824012 5.94653051,11.1475522 5.81379546,10.9857334 C5.70760741,10.8508844 5.60141937,10.6351259 5.52177833,10.3654279 C5.41559029,10.0417902 5.36249627,9.69118273 5.36249627,9.31360545 C5.36249627,8.82814895 5.52177833,8.42360187 5.81379546,8.0999642 L6.10581258,7.77632654 L5.94653051,7.37177946 C5.89343649,7.23693043 5.84034247,7.04814179 5.86688948,6.72450413 C6.23854764,6.85935315 6.34473568,6.94026257 6.34473568,6.94026257 L6.37128269,6.96723238 C6.47747074,7.02117199 6.55711177,7.1020814 6.6367528,7.12905121 L6.95531694,7.31783985 L7.22078705,7.23693043 C7.67208624,7.1020814 8.12338543,7.04814179 8.60123164,7.04814179 C9.07907784,7.04814179 9.53037703,7.1020814 9.98167622,7.23693043 L10.2471463,7.31783985 L10.8046336,6.96723238 C10.9904626,6.85935315 11.1762917,6.75147393 11.3886678,6.67056452 C11.4152148,6.91329276 11.3886678,7.12905121 11.3090268,7.34480965 L11.1497447,7.74935673 L11.4417618,8.0729944 C11.733779,8.39663206 11.893061,8.80117915 11.893061,9.28663564 C11.893061,9.69118273 11.839967,10.0148204 11.760326,10.3114883 C11.6541379,10.6351259 11.5479499,10.8239146 11.4417618,10.9587636 C11.3355738,11.0936126 11.1762917,11.2284616 10.9639156,11.3633107 C10.7249925,11.4981597 10.5391635,11.5520993 10.3267874,11.6330087 C10.1940523,11.6869483 9.98167622,11.7139181 9.79584714,11.7408879 L9.76930013,11.7408879 C9.50383002,11.7948275 9.29145393,11.9836162 9.18526588,12.2263444 C9.07907784,12.4690727 9.10562485,12.7387707 9.26490692,12.981499 C9.37109496,13.116348 9.42418898,13.3321065 9.42418898,13.6018045 L9.42418898,15.7324191 C9.42418898,16.1099964 9.61001806,16.4875737 9.90203519,16.7033321 C10.1940523,16.9190906 10.5922575,17 10.9639156,16.8921208 C14.7335912,15.7593889 17.1759163,12.1724048 16.9900872,8.23481323 Z M10.8046336,15.5706003 L10.8046336,13.6287743 C10.8046336,13.3860461 10.7780866,13.1702876 10.7249925,12.981499 C11.0170097,12.9005896 11.3090268,12.7927104 11.6275909,12.6039217 L11.6541379,12.5769519 C11.9992491,12.3611935 12.2647192,12.145435 12.4770953,11.875737 C12.7425654,11.5520993 12.9018475,11.174522 13.0345825,10.7969447 C13.1673176,10.3654279 13.2469586,9.90694117 13.2469586,9.34057525 C13.2469586,8.63936031 13.0611295,8.04602459 12.6894714,7.50662848 C12.7956594,6.94026257 12.7425654,6.37389666 12.5036423,5.75359113 L12.3974542,5.45692327 L12.1054371,5.34904405 C11.81342,5.24116483 11.4417618,5.26813463 10.9904626,5.45692327 C10.6984455,5.56480249 10.4329754,5.69965152 10.1409583,5.86147035 L10.0878643,5.91540996 C9.15871887,5.69965152 8.14993244,5.69965152 7.19424004,5.91540996 C7.16769303,5.88844016 7.14114602,5.88844016 7.11459901,5.86147035 C6.95531694,5.75359113 6.71639384,5.6187421 6.34473568,5.48389308 C5.89343649,5.26813463 5.49523132,5.24116483 5.17666719,5.34904405 L4.88465006,5.45692327 L4.77846202,5.75359113 C4.53953892,6.40086646 4.4864449,6.96723238 4.61917995,7.50662848 C4.2475218,8.01905479 4.06169272,8.63936031 4.06169272,9.34057525 C4.06169272,9.85300156 4.11478674,10.3114883 4.27406881,10.7699749 C4.40680386,11.2284616 4.59263294,11.6060389 4.80500903,11.875737 C5.07047914,12.1724048 5.33594926,12.4151331 5.65451339,12.5769519 C5.94653051,12.7387707 6.23854764,12.8736198 6.55711177,12.9545292 C6.53056476,13.0354386 6.53056476,13.116348 6.50401775,13.2242272 L6.50401775,14.087261 C5.86688948,13.8715026 5.33594926,13.6018045 4.91119708,13.1433178 C4.61917995,12.8196802 4.30061582,12.4960425 4.14133375,12.3881633 C3.7962226,12.2263444 3.58384651,12.5769519 3.66348755,12.7387707 C3.74312858,12.981499 4.08823973,13.116348 4.27406881,13.3051367 C4.4864449,13.5208951 4.51299191,13.817563 4.69882099,14.0602912 C4.9642911,14.4378685 5.89343649,14.8963552 6.53056476,14.7615061 L6.53056476,15.6245399 C3.42456445,14.7345363 1.32735056,11.875737 1.32735056,8.63936031 C1.32735056,6.64359471 2.09721389,4.78267813 3.53075249,3.38024825 C4.88465006,2.05872779 6.6367528,1.35751284 8.5215906,1.35751284 L8.81360772,1.35751284 C12.5036423,1.49236187 15.5034546,4.53994989 15.6627366,8.28875284 C15.8220187,11.5520993 13.8309928,14.5187779 10.8046336,15.5706003 L10.8046336,15.5706003 Z" id="形状"></path>
            </g>
        </g>
    </g>
</svg>