<svg width="20" height="20" viewBox="0 0 20 20" fill="none" xmlns="http://www.w3.org/2000/svg">
<path fill-rule="evenodd" clip-rule="evenodd" d="M13.3332 3.33329H6.6665C4.82555 3.33329 3.33317 4.82568 3.33317 6.66663V13.3333C3.33317 15.1742 4.82555 16.6666 6.6665 16.6666H13.3332C15.1741 16.6666 16.6665 15.1742 16.6665 13.3333V6.66663C16.6665 4.82568 15.1741 3.33329 13.3332 3.33329ZM6.6665 1.66663C3.90508 1.66663 1.6665 3.9052 1.6665 6.66663V13.3333C1.6665 16.0947 3.90508 18.3333 6.6665 18.3333H13.3332C16.0946 18.3333 18.3332 16.0947 18.3332 13.3333V6.66663C18.3332 3.9052 16.0946 1.66663 13.3332 1.66663H6.6665Z" fill="#777E91"/>
<path d="M14.1668 6.66667C14.6271 6.66667 15.0002 6.29357 15.0002 5.83333C15.0002 5.3731 14.6271 5 14.1668 5C13.7066 5 13.3335 5.3731 13.3335 5.83333C13.3335 6.29357 13.7066 6.66667 14.1668 6.66667Z" fill="#777E91"/>
<path fill-rule="evenodd" clip-rule="evenodd" d="M14.1668 10C14.1668 12.3012 12.3013 14.1667 10.0002 14.1667C7.69898 14.1667 5.8335 12.3012 5.8335 10C5.8335 7.69886 7.69898 5.83337 10.0002 5.83337C12.3013 5.83337 14.1668 7.69886 14.1668 10ZM12.5002 10C12.5002 11.3808 11.3809 12.5 10.0002 12.5C8.61941 12.5 7.50016 11.3808 7.50016 10C7.50016 8.61929 8.61941 7.50004 10.0002 7.50004C11.3809 7.50004 12.5002 8.61929 12.5002 10Z" fill="#777E91"/>
</svg>
