<?xml version="1.0" encoding="UTF-8"?>
<svg width="17px" height="17px" viewBox="0 0 17 17" version="1.1" xmlns="http://www.w3.org/2000/svg" xmlns:xlink="http://www.w3.org/1999/xlink">
    <title>telegram-line</title>
    <g id="页面-1" stroke="none" stroke-width="1" fill="none" fill-rule="evenodd">
        <g id="画板" transform="translate(-294.000000, -502.000000)" fill="#777E90" fill-rule="nonzero">
            <g id="433-github" transform="translate(294.000000, 432.000000)">
                <g id="telegram-line" transform="translate(0.000000, 70.000000)">
                    <path d="M8.5,15.300002 L8.4999997,15.300002 C12.2555292,15.300002 15.2999877,12.2555434 15.2999877,8.50001395 C15.2999877,4.74448446 12.2555292,1.7000259 8.4999997,1.7000259 L8.49999952,1.7000259 C4.74447003,1.7000259 1.70001147,4.74448446 1.70001147,8.50001395 C1.70001147,12.2555434 4.74447003,15.300002 8.49999952,15.300002 L8.5,15.300002 Z M8.5,17 C3.80545367,17 0,13.1945463 0,8.5 C0,3.80545367 3.80545367,0 8.5,0 C13.1945463,0 17,3.80545367 17,8.5 C17,13.1945463 13.1945463,17 8.5,17 Z M5.85650871,9.49449922 L3.73321701,8.8323504 C3.27421736,8.69210051 3.27166737,8.37590076 3.83606699,8.14895094 L12.1091172,4.95294679 C12.5893675,4.75744701 12.8613666,5.00479682 12.7058167,5.62444693 L11.2973671,12.2714351 C11.1987673,12.7448841 10.9140168,12.8579346 10.5187671,12.6394855 L8.35041214,11.0346861 L7.33976226,12.0104846 C7.23606241,12.1107846 7.15191248,12.1966345 6.99211187,12.2178851 C6.83316193,12.2399851 6.70226276,12.1923852 6.60621151,11.9288847 L5.86671208,9.48853661 L5.85651209,9.49533662 L5.85650871,9.49449922 Z" id="形状"></path>
                </g>
            </g>
        </g>
    </g>
</svg>